<svg width="40" height="36" viewBox="0 0 40 36" fill="none" xmlns="http://www.w3.org/2000/svg">
<path d="M19.589 15.954C20.1069 16.5094 20.3949 17.2406 20.3949 18C20.3949 18.7594 20.1069 19.4906 19.589 20.046L5.693 34.935C3.833 36.927 0.5 35.613 0.5 32.889V3.11099C0.5 0.38699 3.836 -0.927011 5.693 1.06499L19.589 15.954Z" fill="#FF0000"/>
<path fill-rule="evenodd" clip-rule="evenodd" d="M13.292 18L6.49999 10.722V25.278L13.292 18ZM19.592 20.046C20.1099 19.4906 20.3979 18.7594 20.3979 18C20.3979 17.2406 20.1099 16.5094 19.592 15.954L5.68999 1.06499C3.82999 -0.927011 0.496994 0.38699 0.496994 3.11099V32.889C0.496994 35.613 3.83299 36.927 5.68999 34.935L19.592 20.046Z" fill="#FF0000"/>
<path d="M34.589 15.954C35.1069 16.5094 35.3949 17.2406 35.3949 18C35.3949 18.7594 35.1069 19.4906 34.589 20.046L20.693 34.935C18.833 36.927 15.5 35.613 15.5 32.889V3.11099C15.5 0.38699 18.836 -0.927011 20.693 1.06499L34.589 15.954Z" fill="#FF0000"/>
<path fill-rule="evenodd" clip-rule="evenodd" d="M28.292 18L21.5 10.722V25.278L28.292 18ZM34.592 20.046C35.1099 19.4906 35.3979 18.7594 35.3979 18C35.3979 17.2406 35.1099 16.5094 34.592 15.954L20.69 1.06499C18.83 -0.927011 15.497 0.38699 15.497 3.11099V32.889C15.497 35.613 18.833 36.927 20.69 34.935L34.592 20.046Z" fill="#FF0000"/>
<path fill-rule="evenodd" clip-rule="evenodd" d="M36.5 0C37.2956 0 38.0587 0.316071 38.6213 0.87868C39.1839 1.44129 39.5 2.20435 39.5 3V33C39.5 33.7957 39.1839 34.5587 38.6213 35.1213C38.0587 35.6839 37.2956 36 36.5 36C35.7044 36 34.9413 35.6839 34.3787 35.1213C33.8161 34.5587 33.5 33.7957 33.5 33V3C33.5 2.20435 33.8161 1.44129 34.3787 0.87868C34.9413 0.316071 35.7044 0 36.5 0Z" fill="#FF0000"/>
</svg>
