<svg width="40" height="36" viewBox="0 0 40 36" fill="none" xmlns="http://www.w3.org/2000/svg">
<path d="M20.411 15.954C19.8931 16.5094 19.6051 17.2406 19.6051 18C19.6051 18.7594 19.8931 19.4906 20.411 20.046L34.307 34.935C36.167 36.927 39.5 35.613 39.5 32.889V3.11099C39.5 0.38699 36.164 -0.927011 34.307 1.06499L20.411 15.954Z" fill="#FF0000"/>
<path fill-rule="evenodd" clip-rule="evenodd" d="M26.708 18L33.5 10.722V25.278L26.708 18ZM20.408 20.046C19.8901 19.4906 19.6021 18.7594 19.6021 18C19.6021 17.2406 19.8901 16.5094 20.408 15.954L34.307 1.06499C36.167 -0.927011 39.5 0.38699 39.5 3.11099V32.889C39.5 35.613 36.164 36.927 34.307 34.935L20.408 20.046Z" fill="#FF0000"/>
<path d="M5.411 15.954C4.89307 16.5094 4.60506 17.2406 4.60506 18C4.60506 18.7594 4.89307 19.4906 5.411 20.046L19.307 34.935C21.167 36.927 24.5 35.613 24.5 32.889V3.11099C24.5 0.38699 21.164 -0.927011 19.307 1.06499L5.411 15.954Z" fill="#FF0000"/>
<path fill-rule="evenodd" clip-rule="evenodd" d="M11.708 18L18.5 10.722V25.278L11.708 18ZM5.408 20.046C4.89007 19.4906 4.60205 18.7594 4.60205 18C4.60205 17.2406 4.89007 16.5094 5.408 15.954L19.31 1.06499C21.17 -0.927011 24.503 0.38699 24.503 3.11099V32.889C24.503 35.613 21.167 36.927 19.31 34.935L5.408 20.046Z" fill="#FF0000"/>
<path fill-rule="evenodd" clip-rule="evenodd" d="M3.5 0C2.70435 0 1.94129 0.316071 1.37868 0.87868C0.81607 1.44129 0.5 2.20435 0.5 3V33C0.5 33.7957 0.81607 34.5587 1.37868 35.1213C1.94129 35.6839 2.70435 36 3.5 36C4.29565 36 5.05871 35.6839 5.62132 35.1213C6.18393 34.5587 6.5 33.7957 6.5 33V3C6.5 2.20435 6.18393 1.44129 5.62132 0.87868C5.05871 0.316071 4.29565 0 3.5 0Z" fill="#FF0000"/>
</svg>
