<svg width="39" height="44" viewBox="0 0 39 44" fill="none" xmlns="http://www.w3.org/2000/svg">
<path d="M3.48 1.17502L37.4 20.2575C37.709 20.4316 37.9661 20.6847 38.1451 20.9909C38.324 21.2971 38.4183 21.6454 38.4183 22C38.4183 22.3547 38.324 22.7029 38.1451 23.0091C37.9661 23.3153 37.709 23.5684 37.4 23.7425L3.48 42.825C3.17555 42.9961 2.83159 43.0846 2.48235 43.0815C2.13311 43.0784 1.79076 42.9839 1.48938 42.8074C1.18799 42.631 0.938078 42.3786 0.764499 42.0756C0.590919 41.7725 0.499729 41.4293 0.500001 41.08V2.92002C0.500165 2.57097 0.591674 2.22805 0.765432 1.92533C0.93919 1.62261 1.18915 1.37064 1.49046 1.19445C1.79177 1.01827 2.13394 0.924004 2.48297 0.921032C2.832 0.91806 3.17573 1.00398 3.48 1.17502Z" fill="#FF0000"/>
</svg>
